<svg width="33" height="33" viewBox="0 0 33 33" fill="none" xmlns="http://www.w3.org/2000/svg">
<path d="M0.575073 0.951172H32.5751V32.9512H0.575073V0.951172Z" fill="white"/>
<path d="M27.0293 14.7798V19.4358H21.1253V15.0198C21.1253 13.6118 20.7253 12.5878 19.9253 11.9478C19.1253 11.2758 18.0533 10.9398 16.7093 10.9398C15.7173 10.9398 14.8213 11.0678 14.0213 11.3238C13.2533 11.5478 12.5653 11.8198 11.9573 12.1398V19.4358H6.05331V11.7558C6.05331 10.9878 6.21331 10.3638 6.53331 9.88382C6.85331 9.37182 7.33331 8.90782 7.97331 8.49182C8.93331 7.85182 10.1653 7.32382 11.6693 6.90782C13.2053 6.45982 14.9013 6.23582 16.7573 6.23582C19.9893 6.23582 22.5013 6.95582 24.2933 8.39581C26.1173 9.83582 27.0293 11.9638 27.0293 14.7798ZM6.05331 17.0838H11.9573V29.5158C11.7013 29.6118 11.3333 29.6918 10.8533 29.7558C10.3733 29.8518 9.84531 29.8998 9.26931 29.8998C8.18131 29.8998 7.36531 29.7078 6.82131 29.3238C6.30931 28.9078 6.05331 28.1878 6.05331 27.1638V17.0838ZM21.1253 17.0838H27.0293V29.5158C26.8053 29.6118 26.4373 29.6918 25.9253 29.7558C25.4453 29.8518 24.9333 29.8998 24.3893 29.8998C23.2693 29.8998 22.4373 29.7078 21.8933 29.3238C21.3813 28.9078 21.1253 28.1878 21.1253 27.1638V17.0838Z" fill="#449EC5" fill-opacity="0.69"/>
</svg>
