<svg width="1251" height="256" viewBox="0 0 1251 256" fill="none" xmlns="http://www.w3.org/2000/svg">
<path d="M159.63 136.836V172.254H114.718V138.662C114.718 127.951 111.675 120.161 105.589 115.293C99.5038 110.181 91.3491 107.625 81.1252 107.625C73.579 107.625 66.7631 108.599 60.6775 110.546C54.8353 112.25 49.6017 114.319 44.9766 116.753V172.254H0.0646973V113.832C0.0646973 107.99 1.28182 103.243 3.71607 99.5918C6.15032 95.697 9.8017 92.1674 14.6702 89.0028C21.9729 84.1343 31.3448 80.1178 42.7858 76.9533C54.4702 73.5453 67.3717 71.8414 81.4903 71.8414C106.076 71.8414 125.185 77.3184 138.817 88.2725C152.692 99.2267 159.63 115.414 159.63 136.836ZM0.0646973 154.362H44.9766V248.933C43.0292 249.663 40.2298 250.272 36.5784 250.759C32.9271 251.489 28.9106 251.854 24.5289 251.854C16.2525 251.854 10.0451 250.394 5.9069 247.473C2.0121 244.308 0.0646973 238.831 0.0646973 231.041V154.362ZM114.718 154.362H159.63V248.933C157.926 249.663 155.126 250.272 151.232 250.759C147.58 251.489 143.685 251.854 139.547 251.854C131.027 251.854 124.698 250.394 120.56 247.473C116.665 244.308 114.718 238.831 114.718 231.041V154.362Z" fill="white"/>
<path d="M201.039 186.129L199.213 154.728L297.07 140.122C296.34 130.872 292.81 122.839 286.481 116.023C280.152 109.207 270.902 105.799 258.73 105.799C246.316 105.799 235.97 110.181 227.694 118.944C219.417 127.464 215.157 139.757 214.914 155.823L216.009 174.81C218.2 190.389 224.164 201.83 233.901 209.133C243.881 216.436 256.418 220.087 271.51 220.087C281.734 220.087 291.228 218.627 299.991 215.706C308.754 212.541 315.692 209.133 320.804 205.482C324.212 207.673 326.889 210.472 328.837 213.88C331.028 217.044 332.123 220.574 332.123 224.469C332.123 230.798 329.324 236.275 323.725 240.9C318.126 245.282 310.58 248.69 301.086 251.124C291.593 253.558 280.76 254.775 268.589 254.775C249.845 254.775 233.171 251.367 218.565 244.551C204.203 237.492 192.884 227.025 184.607 213.15C176.574 199.274 172.558 181.991 172.558 161.3C172.558 146.451 174.87 133.428 179.496 122.23C184.121 111.033 190.328 101.783 198.118 94.4799C206.151 86.9337 215.401 81.3349 225.868 77.6836C236.335 73.7888 247.289 71.8414 258.73 71.8414C274.796 71.8414 288.793 75.1276 300.721 81.7001C312.892 88.0291 322.386 96.9141 329.202 108.355C336.261 119.796 339.791 132.941 339.791 147.79C339.791 154.606 337.965 159.718 334.314 163.126C330.906 166.29 326.037 168.238 319.708 168.968L201.039 186.129Z" fill="white"/>
<path d="M519.878 163.126C519.878 181.869 516.226 198.179 508.924 212.054C501.621 225.686 491.275 236.275 477.887 243.821C464.742 251.124 449.163 254.775 431.149 254.775C413.136 254.775 397.435 251.124 384.047 243.821C370.658 236.275 360.191 225.686 352.645 212.054C345.342 198.422 341.691 182.113 341.691 163.126C341.691 144.382 345.464 128.194 353.01 114.562C360.556 100.931 371.023 90.4634 384.412 83.1606C397.8 75.6144 413.379 71.8414 431.149 71.8414C448.919 71.8414 464.377 75.6144 477.522 83.1606C490.91 90.4634 501.256 101.052 508.559 114.928C516.105 128.559 519.878 144.625 519.878 163.126ZM431.149 107.625C417.761 107.625 407.172 112.493 399.382 122.23C391.836 131.967 388.063 145.599 388.063 163.126C388.063 181.139 391.836 195.014 399.382 204.751C406.929 214.245 417.518 218.992 431.149 218.992C444.538 218.992 455.005 214.123 462.551 204.386C470.097 194.649 473.871 180.896 473.871 163.126C473.871 145.843 470.097 132.332 462.551 122.595C455.005 112.615 444.538 107.625 431.149 107.625Z" fill="white"/>
<path d="M621.509 107.99C606.903 107.99 594.61 112.737 584.63 122.23C574.893 131.724 570.024 145.599 570.024 163.856C570.024 181.869 574.771 195.501 584.265 204.751C593.758 214.002 606.051 218.627 621.144 218.627C630.15 218.627 637.696 217.531 643.782 215.34C650.111 212.906 655.588 210.35 660.213 207.673C663.865 209.863 666.664 212.541 668.611 215.706C670.802 218.627 671.898 222.278 671.898 226.66C671.898 234.936 666.907 241.752 656.927 247.107C646.947 252.219 633.802 254.775 617.492 254.775C598.992 254.775 582.682 251.489 568.564 244.917C554.689 238.101 543.734 227.877 535.701 214.245C527.912 200.613 524.017 183.817 524.017 163.856C524.017 143.165 528.155 126.003 536.432 112.372C544.952 98.7398 556.149 88.6377 570.024 82.0652C584.143 75.2493 599.6 71.8414 616.397 71.8414C632.463 71.8414 645.364 74.6408 655.101 80.2395C664.838 85.8383 669.707 92.7759 669.707 101.052C669.707 104.704 668.733 108.112 666.786 111.276C664.838 114.441 662.526 116.997 659.848 118.944C654.98 116.023 649.503 113.467 643.417 111.276C637.331 109.085 630.029 107.99 621.509 107.99Z" fill="white"/>
<path d="M752.356 220.817C759.659 220.817 766.231 220.087 772.074 218.627C777.916 217.166 782.176 215.584 784.854 213.88V172.254L748.705 175.906C738.725 176.636 731.057 178.827 725.701 182.478C720.589 185.886 718.033 190.998 718.033 197.814C718.033 204.873 720.833 210.472 726.432 214.61C732.03 218.748 740.672 220.817 752.356 220.817ZM750.531 71.8414C774.386 71.8414 793.373 76.9533 807.492 87.1771C821.611 97.1576 828.67 112.98 828.67 134.645V218.627C828.67 224.469 827.209 229.094 824.288 232.502C821.611 235.91 818.081 238.953 813.699 241.63C806.883 245.525 798.242 248.69 787.775 251.124C777.307 253.802 765.501 255.14 752.356 255.14C728.014 255.14 708.905 250.515 695.03 241.265C681.154 231.772 674.217 217.775 674.217 199.274C674.217 182.965 679.329 170.55 689.553 162.03C700.02 153.267 715.112 147.912 734.83 145.964L784.488 140.852V134.28C784.488 124.543 781.08 117.484 774.265 113.102C767.692 108.72 758.32 106.529 746.149 106.529C736.655 106.529 727.405 107.747 718.398 110.181C709.392 112.615 701.359 115.536 694.299 118.944C691.865 116.997 689.674 114.319 687.727 110.911C685.78 107.503 684.806 103.973 684.806 100.322C684.806 91.5588 689.674 85.108 699.411 80.9698C706.227 77.8053 714.139 75.4927 723.145 74.0322C732.395 72.5716 741.524 71.8414 750.531 71.8414Z" fill="white"/>
<path d="M851.851 153.267L896.762 155.458V248.933C894.815 249.663 892.016 250.272 888.364 250.759C884.713 251.489 880.696 251.854 876.315 251.854C868.038 251.854 861.831 250.394 857.693 247.473C853.798 244.308 851.851 238.831 851.851 231.041V153.267ZM896.762 178.462L851.851 176.271V12.3239C853.554 11.8371 856.232 11.2285 859.884 10.4983C863.778 9.76798 867.795 9.40284 871.933 9.40284C880.696 9.40284 887.025 10.9851 890.92 14.1496C894.815 17.0707 896.762 22.4261 896.762 30.2157V178.462Z" fill="white"/>
<path d="M923.28 153.267L968.192 155.458V248.933C966.245 249.663 963.446 250.272 959.794 250.759C956.143 251.489 952.126 251.854 947.745 251.854C939.468 251.854 933.261 250.394 929.123 247.473C925.228 244.308 923.28 238.831 923.28 231.041V153.267ZM968.192 178.462L923.28 176.271V12.3239C924.984 11.8371 927.662 11.2285 931.314 10.4983C935.208 9.76798 939.225 9.40284 943.363 9.40284C952.126 9.40284 958.455 10.9851 962.35 14.1496C966.245 17.0707 968.192 22.4261 968.192 30.2157V178.462Z" fill="white"/>
<path d="M975.01 227.39C975.01 219.6 977.444 213.028 982.313 207.673C987.181 202.317 993.876 199.639 1002.4 199.639C1010.92 199.639 1017.61 202.317 1022.48 207.673C1027.35 213.028 1029.78 219.6 1029.78 227.39C1029.78 235.18 1027.35 241.752 1022.48 247.107C1017.61 252.463 1010.92 255.14 1002.4 255.14C993.876 255.14 987.181 252.463 982.313 247.107C977.444 241.752 975.01 235.18 975.01 227.39Z" fill="white"/>
<path d="M1103.69 220.817C1110.99 220.817 1117.56 220.087 1123.4 218.627C1129.25 217.166 1133.51 215.584 1136.18 213.88V172.254L1100.04 175.906C1090.06 176.636 1082.39 178.827 1077.03 182.478C1071.92 185.886 1069.36 190.998 1069.36 197.814C1069.36 204.873 1072.16 210.472 1077.76 214.61C1083.36 218.748 1092 220.817 1103.69 220.817ZM1101.86 71.8414C1125.72 71.8414 1144.7 76.9533 1158.82 87.1771C1172.94 97.1576 1180 112.98 1180 134.645V218.627C1180 224.469 1178.54 229.094 1175.62 232.502C1172.94 235.91 1169.41 238.953 1165.03 241.63C1158.21 245.525 1149.57 248.69 1139.11 251.124C1128.64 253.802 1116.83 255.14 1103.69 255.14C1079.34 255.14 1060.24 250.515 1046.36 241.265C1032.49 231.772 1025.55 217.775 1025.55 199.274C1025.55 182.965 1030.66 170.55 1040.88 162.03C1051.35 153.267 1066.44 147.912 1086.16 145.964L1135.82 140.852V134.28C1135.82 124.543 1132.41 117.484 1125.6 113.102C1119.02 108.72 1109.65 106.529 1097.48 106.529C1087.99 106.529 1078.74 107.747 1069.73 110.181C1060.72 112.615 1052.69 115.536 1045.63 118.944C1043.2 116.997 1041.01 114.319 1039.06 110.911C1037.11 107.503 1036.14 103.973 1036.14 100.322C1036.14 91.5588 1041 85.108 1050.74 80.9698C1057.56 77.8053 1065.47 75.4927 1074.48 74.0322C1083.73 72.5716 1092.85 71.8414 1101.86 71.8414Z" fill="white"/>
<path d="M1198.43 25.4689C1198.43 18.4096 1200.87 12.4457 1205.74 7.57716C1210.85 2.70866 1217.18 0.274414 1224.72 0.274414C1232.51 0.274414 1238.72 2.70866 1243.35 7.57716C1248.21 12.4457 1250.65 18.4096 1250.65 25.4689C1250.65 32.2848 1248.21 38.2487 1243.35 43.3606C1238.72 48.2291 1232.51 50.6634 1224.72 50.6634C1217.18 50.6634 1210.85 48.2291 1205.74 43.3606C1200.87 38.2487 1198.43 32.2848 1198.43 25.4689ZM1202.09 153.267H1247.36V248.933C1245.42 249.663 1242.62 250.272 1238.96 250.759C1235.31 251.489 1231.3 251.854 1226.92 251.854C1218.64 251.854 1212.43 250.394 1208.29 247.473C1204.15 244.308 1202.09 238.831 1202.09 231.041V153.267ZM1247.36 176.271H1202.09V78.4138C1204.03 77.6836 1206.83 77.075 1210.48 76.5881C1214.38 75.8579 1218.52 75.4927 1222.9 75.4927C1231.42 75.4927 1237.63 77.075 1241.52 80.2395C1245.42 83.1606 1247.36 88.6377 1247.36 96.6707V176.271Z" fill="white"/>
</svg>
